<?xml version="1.0" encoding="utf-8"?>
<!-- Generator: Adobe Illustrator 27.0.0, SVG Export Plug-In . SVG Version: 6.00 Build 0)  -->
<svg version="1.1" id="Layer_1" xmlns="http://www.w3.org/2000/svg" xmlns:xlink="http://www.w3.org/1999/xlink" x="0px" y="0px"
	 viewBox="0 0 40 40" style="enable-background:new 0 0 40 40;" xml:space="preserve">
<style type="text/css">
	.st0{fill:#0D1118;}
	.st1{fill:#FF7033;}
	.st2{fill:#EEEEEE;}
</style>
<g>
	<g>
		<polygon class="st0" points="5.3196478,36.5885582 0.8456696,28.8393936 15.5269012,3.4114099 24.4749298,3.4114099 
			39.1543732,28.8393936 34.6803589,36.5885582 		"/>
		<path class="st1" d="M24.0520744,4.1437635l14.2566566,24.695652l-4.0511856,7.016819H5.7424784l-4.0511837-7.016819
			l14.2584143-24.695652H24.0520744 M24.8977566,2.6790659h-0.8456821h-8.1023655h-0.8456364l-0.422823,0.7323325
			L0.4228348,28.1070518L0,28.839407l0.4228348,0.732357l4.0511794,7.0168209l0.422821,0.7323494h0.845643h28.5150681h0.8456459
			l0.4228172-0.7323494l4.0511818-7.0168209L40,28.8394566l-0.4227753-0.7323303L25.3205662,3.4114716L24.8977566,2.6790659
			L24.8977566,2.6790659z"/>
	</g>
	<g>
		<path class="st2" d="M10.8667307,18.0230103H11.81071l2.4780035,6.8833733h-0.973465l-0.609663-1.7503414H9.9817209
			l-0.6096621,1.7503414H8.3984795L10.8667307,18.0230103z M12.4597244,22.3595448l-1.1111374-3.2155304h-0.0197334
			l-1.0915194,3.2155304H12.4597244z"/>
		<path class="st2" d="M15.4086847,25.0292854v-7.1291771l1.0226831-1.0226822h1.1898403v0.8063641h-0.7669544l-0.5310745,0.5211487
			v6.519516l0.5310745,0.5212078h0.7669544v0.8063068h-1.1898403L15.4086847,25.0292854z"/>
		<path class="st2" d="M18.6187077,23.9525375v-0.8850079h0.9439793v0.5801773l0.4326382,0.4326954h1.9666615l0.4327526-0.4326954
			v-1.828989l-0.4327526-0.4228287h-3.244957v-3.372879h4.4840164v0.8161736h-3.5596561v1.7306671h2.7336159l0.9637127,0.9636536
			v2.4190331l-0.953846,0.953846h-2.8123188L18.6187077,23.9525375z"/>
		<path class="st2" d="M25.865366,19.0063419l-1.5241566,0.7866879v-0.8653336l1.6519642-0.904686h0.8161716v6.8833733H25.865366
			V19.0063419z"/>
		<path class="st2" d="M27.9243259,26.0519695v-0.8063068h0.7669563l0.5310726-0.5212078v-6.519516l-0.5310726-0.5211487h-0.7669563
			v-0.8063641h1.1898422l1.0226822,1.0226822v7.1291771l-1.0226822,1.0226841H27.9243259z"/>
	</g>
</g>
</svg>
